<?xml version="1.0" encoding="UTF-8" standalone="no"?>
<!-- Uploaded to: SVG Repo, www.svgrepo.com, Generator: SVG Repo Mixer Tools -->

<svg
   fill="#000000"
   version="1.1"
   id="Capa_1"
   width="800px"
   height="800px"
   viewBox="0 0 389 389"
   xml:space="preserve"
   sodipodi:docname="dotted-square-svgrepo-com.svg"
   inkscape:version="1.1.2 (b8e25be8, 2022-02-05)"
   xmlns:inkscape="http://www.inkscape.org/namespaces/inkscape"
   xmlns:sodipodi="http://sodipodi.sourceforge.net/DTD/sodipodi-0.dtd"
   xmlns="http://www.w3.org/2000/svg"
   xmlns:svg="http://www.w3.org/2000/svg"><defs
   id="defs857" /><sodipodi:namedview
   id="namedview855"
   pagecolor="#505050"
   bordercolor="#eeeeee"
   borderopacity="1"
   inkscape:pageshadow="0"
   inkscape:pageopacity="0"
   inkscape:pagecheckerboard="0"
   showgrid="false"
   inkscape:zoom="0.89875"
   inkscape:cx="180.25035"
   inkscape:cy="413.35188"
   inkscape:window-width="1323"
   inkscape:window-height="969"
   inkscape:window-x="0"
   inkscape:window-y="25"
   inkscape:window-maximized="0"
   inkscape:current-layer="Capa_1" />
<g
   id="g852"
   style="fill:#b3b3b3">
	<g
   id="g850"
   style="fill:#b3b3b3">
		<g
   id="g848"
   style="fill:#b3b3b3">
			<path
   d="M379,326.035h-18.852c-5.522,0-10,4.477-10,10v14.111h-14.113c-5.522,0-10,4.477-10,10V379c0,5.523,4.478,10,10,10H379     c5.522,0,10-4.477,10-10v-42.965C389,330.512,384.522,326.035,379,326.035z"
   id="path824"
   style="fill:#b3b3b3" />
			<path
   d="M166.927,350.146h-58.813c-5.522,0-10,4.477-10,10V379c0,5.523,4.478,10,10,10h58.813c5.522,0,10-4.477,10-10v-18.854     C176.927,354.623,172.449,350.146,166.927,350.146z"
   id="path826"
   style="fill:#b3b3b3" />
			<path
   d="M280.887,350.146h-58.812c-5.523,0-10,4.477-10,10V379c0,5.523,4.477,10,10,10h58.812c5.522,0,10-4.477,10-10v-18.854     C290.887,354.623,286.409,350.146,280.887,350.146z"
   id="path828"
   style="fill:#b3b3b3" />
			<path
   d="M52.965,350.146H38.852v-14.111c0-5.523-4.478-10-10-10H10c-5.522,0-10,4.477-10,10V379c0,5.523,4.478,10,10,10h42.965     c5.521,0,10-4.477,10-10v-18.854C62.965,354.623,58.486,350.146,52.965,350.146z"
   id="path830"
   style="fill:#b3b3b3" />
			<path
   d="M10,290.886h18.852c5.522,0,10-4.477,10-10v-58.812c0-5.523-4.478-10-10-10H10c-5.522,0-10,4.477-10,10v58.812     C0,286.409,4.478,290.886,10,290.886z"
   id="path832"
   style="fill:#b3b3b3" />
			<path
   d="M10,176.926h18.852c5.522,0,10-4.477,10-10v-58.812c0-5.523-4.478-10-10-10H10c-5.522,0-10,4.477-10,10v58.812     C0,172.449,4.478,176.926,10,176.926z"
   id="path834"
   style="fill:#b3b3b3" />
			<path
   d="M52.965,0H10C4.478,0,0,4.477,0,10v42.967c0,5.523,4.478,10,10,10h18.852c5.522,0,10-4.477,10-10V38.854h14.113     c5.521,0,10-4.477,10-10V10C62.965,4.478,58.486,0,52.965,0z"
   id="path836"
   style="fill:#b3b3b3" />
			<path
   d="M280.887,0h-58.812c-5.522,0-10,4.477-10,10v18.854c0,5.523,4.478,10,10,10h58.812c5.522,0,10-4.477,10-10V10     C290.887,4.478,286.409,0,280.887,0z"
   id="path838"
   style="fill:#b3b3b3" />
			<path
   d="M108.113,38.854h58.813c5.522,0,10-4.477,10-10V10c0-5.523-4.478-10-10-10h-58.813c-5.522,0-10,4.477-10,10v18.854     C98.113,34.377,102.591,38.854,108.113,38.854z"
   id="path840"
   style="fill:#b3b3b3" />
			<path
   d="M379,0h-42.965c-5.522,0-10,4.477-10,10v18.854c0,5.523,4.478,10,10,10h14.113v14.113c0,5.523,4.478,10,10,10H379     c5.522,0,10-4.477,10-10V10C389,4.478,384.522,0,379,0z"
   id="path842"
   style="fill:#b3b3b3" />
			<path
   d="M379,212.074h-18.852c-5.522,0-10,4.477-10,10v58.812c0,5.522,4.478,10,10,10H379c5.522,0,10-4.478,10-10v-58.812     C389,216.551,384.522,212.074,379,212.074z"
   id="path844"
   style="fill:#b3b3b3" />
			<path
   d="M379,98.114h-18.852c-5.522,0-10,4.477-10,10v58.812c0,5.523,4.478,10,10,10H379c5.522,0,10-4.477,10-10v-58.812     C389,102.591,384.522,98.114,379,98.114z"
   id="path846"
   style="fill:#b3b3b3" />
		</g>
	</g>
</g>
</svg>
